HIERARCHY
ROOT hip
{
  OFFSET 0 0 0
  CHANNELS 6 Xposition Yposition Zposition Zrotation Yrotation Xrotation
  JOINT abdomen
  {
    OFFSET 0 20.6881 -0.73152
    CHANNELS 3 Zrotation Xrotation Yrotation
    JOINT chest
    {
      OFFSET 0 11.7043 -0.48768
      CHANNELS 3 Zrotation Xrotation Yrotation
      JOINT neck
      {
        OFFSET 0 22.1894 -2.19456
        CHANNELS 3 Zrotation Xrotation Yrotation
        JOINT head
        {
          OFFSET -0.24384 7.07133 1.2192
          CHANNELS 3 Zrotation Xrotation Yrotation
          JOINT leftEye
          {
            OFFSET 4.14528 8.04674 8.04672
            CHANNELS 3 Zrotation Xrotation Yrotation
            End Site
            {
              OFFSET 1 0 0
            }
          }
          JOINT rightEye
          {
            OFFSET -3.6576 8.04674 8.04672
            CHANNELS 3 Zrotation Xrotation Yrotation
            End Site
            {
              OFFSET 1 0 0
            }
          }
        }
      }
      JOINT rCollar
      {
        OFFSET -2.68224 19.2634 -4.8768
        CHANNELS 3 Zrotation Xrotation Yrotation
        JOINT rShldr
        {
          OFFSET -8.77824 -1.95073 1.46304
          CHANNELS 3 Zrotation Xrotation Yrotation
          JOINT rForeArm
          {
            OFFSET -28.1742 -1.7115 0.48768
            CHANNELS 3 Zrotation Xrotation Yrotation
            JOINT rHand
            {
              OFFSET -22.5879 0.773209 7.07136
              CHANNELS 3 Zrotation Xrotation Yrotation
              JOINT rThumb1
              {
                OFFSET -1.2192 -0.487915 3.41376
                CHANNELS 3 Zrotation Xrotation Yrotation
                JOINT rThumb2
                {
                  OFFSET -3.37035 -0.52449 3.41376
                  CHANNELS 3 Zrotation Xrotation Yrotation
                  End Site
                  {
                    OFFSET -1.78271 -1.18214 1.43049
                  }
                }
              }
              JOINT rIndex1
              {
                OFFSET -7.75947 0.938293 5.60832
                CHANNELS 3 Zrotation Xrotation Yrotation
                JOINT rIndex2
                {
                  OFFSET -2.54057 -0.884171 1.56538
                  CHANNELS 3 Zrotation Xrotation Yrotation
                  End Site
                  {
                    OFFSET -1.62519 -0.234802 1.16502
                  }
                }
              }
              JOINT rMid1
              {
                OFFSET -8.24714 1.18213 3.41376
                CHANNELS 3 Zrotation Xrotation Yrotation
                JOINT rMid2
                {
                  OFFSET -3.10165 -0.590103 1.0647
                  CHANNELS 3 Zrotation Xrotation Yrotation
                  End Site
                  {
                    OFFSET -2.48547 -0.328903 0.83742
                  }
                }
              }
              JOINT rRing1
              {
                OFFSET -8.82822 0.546677 1.51678
                CHANNELS 3 Zrotation Xrotation Yrotation
                JOINT rRing2
                {
                  OFFSET -2.60934 -0.819778 -0.0198488
                  CHANNELS 3 Zrotation Xrotation Yrotation
                  End Site
                  {
                    OFFSET -2.33842 -0.294052 0.168128
                  }
                }
              }
              JOINT rPinky1
              {
                OFFSET -8.27202 -0.0477905 -0.4584
                CHANNELS 3 Zrotation Xrotation Yrotation
                JOINT rPinky2
                {
                  OFFSET -1.82734 -0.647385 -0.700984
                  CHANNELS 3 Zrotation Xrotation Yrotation
                  End Site
                  {
                    OFFSET -1.69225 -0.51767 -0.607171
                  }
                }
              }
            }
          }
        }
      }
      JOINT lCollar
      {
        OFFSET 2.68224 19.2634 -4.8768
        CHANNELS 3 Zrotation Xrotation Yrotation
        JOINT lShldr
        {
          OFFSET 8.77824 -1.95073 1.46304
          CHANNELS 3 Zrotation Xrotation Yrotation
          JOINT lForeArm
          {
            OFFSET 28.1742 -1.7115 0.48768
            CHANNELS 3 Zrotation Xrotation Yrotation
            JOINT lHand
            {
              OFFSET 22.5879 0.773209 7.07136
              CHANNELS 3 Zrotation Xrotation Yrotation
              JOINT lThumb1
              {
                OFFSET 1.2192 -0.487915 3.41376
                CHANNELS 3 Zrotation Xrotation Yrotation
                JOINT lThumb2
                {
                  OFFSET 3.37035 -0.52449 3.41376
                  CHANNELS 3 Zrotation Xrotation Yrotation
                  End Site
                  {
                    OFFSET 1.78271 -1.18214 1.43049
                  }
                }
              }
              JOINT lIndex1
              {
                OFFSET 7.75947 0.938293 5.60832
                CHANNELS 3 Zrotation Xrotation Yrotation
                JOINT lIndex2
                {
                  OFFSET 2.54057 -0.884171 1.56538
                  CHANNELS 3 Zrotation Xrotation Yrotation
                  End Site
                  {
                    OFFSET 1.62519 -0.234802 1.16502
                  }
                }
              }
              JOINT lMid1
              {
                OFFSET 8.24714 1.18213 3.41376
                CHANNELS 3 Zrotation Xrotation Yrotation
                JOINT lMid2
                {
                  OFFSET 3.10165 -0.590103 1.0647
                  CHANNELS 3 Zrotation Xrotation Yrotation
                  End Site
                  {
                    OFFSET 2.48547 -0.328903 0.83742
                  }
                }
              }
              JOINT lRing1
              {
                OFFSET 8.82822 0.546677 1.51678
                CHANNELS 3 Zrotation Xrotation Yrotation
                JOINT lRing2
                {
                  OFFSET 2.60934 -0.819778 -0.0198488
                  CHANNELS 3 Zrotation Xrotation Yrotation
                  End Site
                  {
                    OFFSET 2.33842 -0.294052 0.168128
                  }
                }
              }
              JOINT lPinky1
              {
                OFFSET 8.27202 -0.0477905 -0.4584
                CHANNELS 3 Zrotation Xrotation Yrotation
                JOINT lPinky2
                {
                  OFFSET 1.82734 -0.647385 -0.700984
                  CHANNELS 3 Zrotation Xrotation Yrotation
                  End Site
                  {
                    OFFSET 1.69225 -0.51767 -0.607171
                  }
                }
              }
            }
          }
        }
      }
    }
  }
  JOINT rButtock
  {
    OFFSET -8.77824 4.35084 1.2192
    CHANNELS 3 Zrotation Xrotation Yrotation
    JOINT rThigh
    {
      OFFSET 0 -1.70687 -2.19456
      CHANNELS 3 Zrotation Xrotation Yrotation
      JOINT rShin
      {
        OFFSET 0 -36.8199 0.73152
        CHANNELS 3 Zrotation Xrotation Yrotation
        JOINT rFoot
        {
          OFFSET 0.73152 -45.1104 -5.12064
          CHANNELS 3 Zrotation Xrotation Yrotation
          End Site
          {
            OFFSET -1.1221 -3.69964 12.103
          }
        }
      }
    }
  }
  JOINT lButtock
  {
    OFFSET 8.77824 4.35084 1.2192
    CHANNELS 3 Zrotation Xrotation Yrotation
    JOINT lThigh
    {
      OFFSET 0 -1.70687 -2.19456
      CHANNELS 3 Zrotation Xrotation Yrotation
      JOINT lShin
      {
        OFFSET 0 -36.8199 0.73152
        CHANNELS 3 Zrotation Xrotation Yrotation
        JOINT lFoot
        {
          OFFSET -0.73152 -45.1104 -5.12064
          CHANNELS 3 Zrotation Xrotation Yrotation
          End Site
          {
            OFFSET 1.1221 -3.69964 12.103
          }
        }
      }
    }
  }
}
MOTION
Frames:	4
Frame Time:	0.00833333
-0.293358 85.2591 4.5278 0.0 0.0 0.0 0.798875 -0.00440623 0.0224362 0.22051 -0.00586818 0.0382072 -1.7451e-14 -1.59028e-15 -2.4848e-17 -5.22431e-14 3.18055e-15 -8.69683e-17 -0.0 0.0 0.0 -0.0 0.0 0.0 -8.69831e-15 2.32951e-17 4.96962e-17 -1.79004e-13 9.13167e-16 0.0 -3.13792e-12 9.56949e-13 3.18055e-15 -3.59175e-11 -8.51022e-13 -9.22361e-14 -8.4723e-11 2.20951e-13 -1.78111e-13 -1.4631e-10 3.75305e-13 -3.08514e-13 -8.47149e-11 2.23832e-13 -1.87653e-13 7.73091 5.47488 0.417314 -8.47221e-11 2.21744e-13 -1.81292e-13 2.90554 0.965183 0.102902 -8.47163e-11 2.21247e-13 -1.79701e-13 10.2786 0.731801 0.0259123 -8.47238e-11 2.21049e-13 -1.78111e-13 2.22167 -0.733487 -0.20892 -8.59653e-15 2.48481e-17 -9.93923e-17 -1.85681e-13 6.02566e-16 -1.98785e-15 -3.14129e-12 -9.22162e-13 5.40694e-14 -3.5916e-11 1.02692e-12 -1.30403e-13 -8.47261e-11 2.23502e-13 -1.84472e-13 -1.4632e-10 3.81667e-13 -2.98972e-13 -8.4732e-11 2.24627e-13 -1.74931e-13 -7.73091 5.47488 -0.417314 -8.47273e-11 2.23931e-13 -1.81292e-13 -2.90554 0.965183 -0.102902 -8.47293e-11 2.23533e-13 -1.75726e-13 -10.2786 0.731801 -0.0259123 -8.47248e-11 2.24229e-13 -1.78111e-13 -2.22167 -0.733487 0.20892 -2.03217e-16 0.0 -3.88251e-19 1.0957 -5.06523 -0.0944609 -0.000723586 3.62221 0.0100324 -0.496102 1.44299 0.0858465 2.03217e-16 0.0 3.88251e-19 0.121011 -2.06714 0.0162444 0.0088142 -1.80834 0.0738145 0.483984 3.87532 -0.133676
0.166072 84.8086 4.45872 -0.2445 6.9623 0.8255 0.474639 -0.808668 -0.259314 0.7188 -0.275855 -0.0104605 -6.15975 6.3239 -2.6923 9.90317 -3.4836 -5.19401 -0.0 0.0 0.0 -0.0 0.0 0.0 -8.39343e-15 9.38161e-15 4.08914e-14 11.7462 -1.95779 5.07921 -23.7793 -21.6465 14.7403 0.00448315 -1.48539 -0.208505 -1.65803e-10 -3.89218e-10 -1.78896e-10 -2.85773e-10 -6.7312e-10 -3.09229e-10 -1.65796e-10 -3.89216e-10 -1.78906e-10 7.73091 5.47488 0.417314 -1.65802e-10 -3.89223e-10 -1.78899e-10 2.90554 0.965183 0.102902 -1.65797e-10 -3.89219e-10 -1.78896e-10 10.2786 0.731801 0.0259123 -1.65804e-10 -3.89218e-10 -1.78894e-10 2.22167 -0.733487 -0.20892 -8.27864e-15 9.38286e-15 4.07695e-14 -7.80945 -2.86287 -9.72595 25.5518 -23.3129 -14.2573 -0.00498915 -1.56912 0.220228 -6.07355e-11 1.77772e-10 -1.77521e-10 -1.04047e-10 3.07292e-10 -3.06521e-10 -6.07401e-11 1.77774e-10 -1.77511e-10 -7.73091 5.47488 -0.417314 -6.07357e-11 1.77774e-10 -1.77517e-10 -2.90554 0.965183 -0.102902 -6.07399e-11 1.77773e-10 -1.77514e-10 -10.2786 0.731801 -0.0259123 -6.07341e-11 1.77773e-10 -1.77519e-10 -2.22167 -0.733487 0.20892 -2.03217e-16 0.0 -3.88251e-19 1.1777 -2.76489 1.89962 0.00211597 4.2351 0.0355091 -0.592195 -1.13214 -3.35081 2.03217e-16 0.0 3.88251e-19 0.761309 -2.13306 -5.34479 0.00373159 1.86347 -0.0156522 0.687859 0.537449 2.59947
0.160907 84.8011 4.47831 -0.2351 6.8213 0.7386 0.117501 -1.66008 -0.555897 1.25056 -0.566144 -0.0614079 -12.0054 12.9318 -5.65924 19.6883 -7.04625 -10.7631 -0.0 0.0 0.0 -0.0 0.0 0.0 -7.97404e-15 1.96155e-14 8.7633e-14 24.6259 -3.87636 10.3664 -34.3133 -39.2087 37.5395 -0.00255142 -3.05747 -0.429654 -2.53202e-10 -8.26043e-10 -3.88159e-10 -4.3603e-10 -1.42853e-09 -6.70945e-10 -2.53197e-10 -8.26042e-10 -3.88168e-10 7.73091 5.47488 0.417314 -2.53203e-10 -8.26053e-10 -3.88162e-10 2.90554 0.965183 0.102902 -2.53197e-10 -8.26044e-10 -3.88156e-10 10.2786 0.731801 0.0259123 -2.53205e-10 -8.26044e-10 -3.88154e-10 2.22167 -0.733487 -0.20892 -7.84229e-15 1.96164e-14 8.75398e-14 -17.21 -5.44779 -20.0098 36.6033 -42.5186 -37.8779 0.00289818 -3.23748 0.454947 -4.12234e-11 3.84637e-10 -3.82983e-10 -6.94024e-11 6.64942e-10 -6.61381e-10 -4.12266e-11 3.8464e-10 -3.82974e-10 -7.73091 5.47488 -0.417314 -4.12223e-11 3.84641e-10 -3.8298e-10 -2.90554 0.965183 -0.102902 -4.12289e-11 3.84639e-10 -3.82979e-10 -10.2786 0.731801 -0.0259123 -4.12217e-11 3.84638e-10 -3.82987e-10 -2.22167 -0.733487 0.20892 -2.03217e-16 0.0 -3.88251e-19 1.0871 -0.338885 3.99693 0.00452555 4.8816 0.0624995 -1.02978 -3.83206 -6.99725 2.03217e-16 0.0 3.88251e-19 1.42344 -2.18303 -11.0184 0.0108113 5.73654 -0.110567 1.24899 -2.97163 5.49632
0.193091 84.7601 4.50437 -0.1013 6.8119 0.6196 -0.19758 -2.41697 -0.82347 1.714 -0.815829 -0.107806 -16.6177 18.7994 -8.48334 27.8156 -10.1054 -15.8046 -0.0 0.0 0.0 -0.0 0.0 0.0 -7.78367e-15 2.80982e-14 1.22575e-13 36.2707 -5.68876 15.3059 -30.9317 -43.945 65.7699 -0.0190664 -4.45593 -0.627199 -3.27962e-10 -1.1681e-09 -5.36333e-10 -5.647e-10 -2.02011e-09 -9.27071e-10 -3.27958e-10 -1.1681e-09 -5.36342e-10 7.73091 5.47488 0.417314 -3.27963e-10 -1.16811e-09 -5.36335e-10 2.90554 0.965183 0.102902 -3.27957e-10 -1.1681e-09 -5.36328e-10 10.2786 0.731801 0.0259123 -3.27965e-10 -1.1681e-09 -5.36325e-10 2.22167 -0.733487 -0.20892 -7.64284e-15 2.80989e-14 1.22507e-13 -26.2252 -7.60369 -29.4249 31.2016 -47.4339 -69.1712 0.0213234 -4.70708 0.662672 -1.27545e-11 5.32868e-10 -5.32193e-10 -1.95015e-11 9.21114e-10 -9.18967e-10 -1.27565e-11 5.32873e-10 -5.32184e-10 -7.73091 5.47488 -0.417314 -1.27525e-11 5.32874e-10 -5.3219e-10 -2.90554 0.965183 -0.102902 -1.27611e-11 5.32872e-10 -5.32191e-10 -10.2786 0.731801 -0.0259123 -1.27525e-11 5.3287e-10 -5.32201e-10 -2.22167 -0.733487 0.20892 -2.03217e-16 0.0 -3.88251e-19 0.862343 1.82163 5.88338 0.00615254 5.46088 0.0866049 -1.71015 -6.18802 -10.2827 2.03217e-16 0.0 3.88251e-19 2.00718 -2.20333 -16.0679 0.0282228 9.20704 -0.197026 2.05105 -6.07574 8.11066
